<svg width="72" height="72" viewBox="0 0 72 72" fill="none" xmlns="http://www.w3.org/2000/svg">
<path fill-rule="evenodd" clip-rule="evenodd" d="M37.107 25.6907C37.107 33.6402 29.494 40.0835 20.1003 40.0835C17.1378 40.1025 14.2107 39.4383 11.5464 38.1427C10.8772 38.4962 10.1864 38.8072 9.47811 39.0739C7.85729 39.7073 6.13722 40.0491 4.39735 40.0835C4.12166 40.0799 3.85395 39.9905 3.63143 39.8277C3.40891 39.6649 3.24265 39.4368 3.15575 39.1752C3.06652 38.9132 3.06273 38.6297 3.14494 38.3655C3.22714 38.1013 3.3911 37.8699 3.61318 37.7048H3.62952C3.66038 37.6851 3.68985 37.6633 3.71773 37.6395C3.79942 37.5742 3.92358 37.4663 4.07061 37.3356C4.46964 36.9782 4.83696 36.5868 5.16845 36.1659C5.65766 35.5572 6.04899 34.8759 6.32837 34.1467C4.2639 31.806 3.11407 28.7986 3.0904 25.6776C3.0904 17.7445 10.7393 11.3143 20.1167 11.3143C29.494 11.3143 37.107 17.7412 37.107 25.6907ZM18.1284 25.1103L18.5144 28.2365H20.0775L20.2704 26.6734C22.4124 26.3067 24.1492 25.2068 24.1492 22.7753C24.1492 20.3245 22.3353 18.8193 19.6336 18.8193C17.5495 18.8193 16.1022 19.6877 14.983 20.9613L16.4303 22.5051C17.3565 21.521 18.36 20.9806 19.5757 20.9806C20.9651 20.9806 21.7949 21.7332 21.7949 22.8139C21.7949 24.1261 20.6757 24.9173 18.2249 25.0138L18.1284 25.1103ZM17.9548 29.8574V32.5012H20.5406V29.8574H17.9548Z" fill="#13AB67"/>
<path d="M46.4328 61.3479C34.5886 61.3479 24.9896 53.2237 24.9896 43.2004C24.9896 33.1771 34.5886 25.0736 46.4122 25.0736C58.2358 25.0736 67.8801 33.1812 67.8801 43.184C67.8503 47.119 66.4005 50.911 63.7975 53.8623C64.1497 54.7818 64.6431 55.6408 65.26 56.4083C65.6779 56.9389 66.1411 57.4324 66.6442 57.8832C66.8296 58.0479 66.9861 58.1839 67.0891 58.2663C67.1243 58.2963 67.1614 58.3238 67.2004 58.3487H67.221C67.501 58.5568 67.7077 58.8485 67.8114 59.1817C67.915 59.5148 67.9102 59.8723 67.7977 60.2026C67.6882 60.5325 67.4785 60.8201 67.1979 61.0253C66.9174 61.2306 66.5798 61.3433 66.2322 61.3479C64.0385 61.3045 61.8697 60.8735 59.826 60.0749C58.933 59.7386 58.062 59.3464 57.2183 58.9007C53.8589 60.5344 50.1682 61.3718 46.4328 61.3479Z" fill="#E8E8E8"/>
<circle cx="38.3795" cy="43.4671" r="2.13244" fill="#017B56"/>
<circle cx="46.0563" cy="43.4671" r="2.13244" fill="#017B56"/>
<circle cx="53.733" cy="43.4671" r="2.13244" fill="#017B56"/>
</svg>
