<svg width="72" height="72" viewBox="0 0 72 72" fill="none" xmlns="http://www.w3.org/2000/svg">
<rect x="47" y="28" width="18" height="39" rx="2" fill="#5D9F82"/>
<rect x="28" y="36" width="17" height="31" rx="2" fill="#C7DCD3"/>
<rect x="8" y="46" width="18" height="21" rx="2" fill="#D1D6D4"/>
<g clip-path="url(#clip0_2100_39035)">
<rect x="8" y="6" width="32" height="32" rx="16" fill="#EBFBF4"/>
<path d="M20.1336 27.1695C19.1867 27.1692 18.2491 27.3576 17.3743 27.724C16.4995 28.0903 15.7045 28.6274 15.0349 29.3045C14.3653 29.9817 13.8342 30.7856 13.4718 31.6705C13.1094 32.5553 12.9229 33.5037 12.9229 34.4614V38H36.2208V34.4614C36.2208 32.5275 35.4613 30.6728 34.1094 29.3053C32.7575 27.9378 30.924 27.1695 29.0121 27.1695H20.1336Z" fill="#5D9F82"/>
<path d="M24.5174 25.9139C28.1169 25.9139 31.0348 23.0231 31.0348 19.457C31.0348 15.8909 28.1169 13 24.5174 13C20.9179 13 18 15.8909 18 19.457C18 23.0231 20.9179 25.9139 24.5174 25.9139Z" fill="#D1D6D4"/>
</g>
<path d="M24.5076 39.6626C14.8541 39.6626 7 31.8882 7 22.3307C7 12.7732 14.8541 5 24.5076 5C34.1612 5 42.0141 12.7744 42.0141 22.3307C42.0141 31.887 34.1612 39.6626 24.5076 39.6626ZM24.5076 7.54109C16.2541 7.54109 9.54109 14.1756 9.54109 22.3307C9.54109 30.4859 16.2541 37.1215 24.5076 37.1215C32.7612 37.1215 39.473 30.487 39.473 22.3307C39.473 14.1744 32.76 7.54109 24.5076 7.54109Z" fill="#13AB67"/>
<path d="M37.4635 31.9193L35.6748 33.7243L45.3079 43.2704L47.0965 41.4654L37.4635 31.9193Z" fill="#13AB67"/>
<path d="M58.8232 10.1762L63.6095 12.3888C63.8487 12.4979 64 12.7371 64 13.0026C64 13.2682 63.8487 13.5021 63.6095 13.6112L58.8232 15.8238L56.6104 20.6095C56.5013 20.8487 56.2621 21 56.0018 21C55.7414 21 55.4987 20.8487 55.3879 20.6095L53.1768 15.8238L48.3905 13.6112C48.153 13.5021 48 13.2629 48 13.0026C48 12.7423 48.153 12.4996 48.3905 12.3888L53.1768 10.1762L55.3879 5.39046C55.4969 5.15302 55.7361 5 56.0018 5C56.2674 5 56.5013 5.15302 56.6104 5.39046L58.8232 10.1762Z" fill="#7CE3B5"/>
<defs>
<clipPath id="clip0_2100_39035">
<rect x="8" y="6" width="32" height="32" rx="16" fill="white"/>
</clipPath>
</defs>
</svg>
