<svg width="72" height="72" viewBox="0 0 72 72" fill="none" xmlns="http://www.w3.org/2000/svg">
<path d="M21.1335 7.86159H54.9235C59.8489 7.86159 63.5217 11.2935 63.5217 15.1589V56.0738C63.5217 59.9392 59.8489 63.3711 54.9235 63.3711H21.1335C16.2081 63.3711 12.5353 59.9392 12.5353 56.0738V15.1589C12.5353 11.2935 16.2081 7.86159 21.1335 7.86159Z" fill="white" stroke="#C7DCD3" stroke-width="2.5784"/>
<path d="M51.566 56.8359L59.6555 69.0036H43.4766L51.566 56.8359Z" fill="#7CE3B5"/>
<g clip-path="url(#clip0_2100_39059)">
<rect x="16" y="12" width="25" height="25" rx="12.5" fill="#EBFBF4"/>
<path d="M25.4791 28.5386C24.7394 28.5384 24.0069 28.6856 23.3234 28.9718C22.6399 29.258 22.0189 29.6776 21.4958 30.2066C20.9726 30.7357 20.5577 31.3637 20.2745 32.055C19.9914 32.7463 19.8457 33.4872 19.8457 34.2355V37H38.0472V34.2355C38.0472 32.7246 37.4539 31.2756 36.3977 30.2072C35.3416 29.1388 33.9091 28.5386 32.4154 28.5386H25.4791Z" fill="#5D9F82"/>
<path d="M28.9042 27.5578C31.7163 27.5578 33.996 25.2993 33.996 22.5133C33.996 19.7273 31.7163 17.4688 28.9042 17.4688C26.0921 17.4688 23.8125 19.7273 23.8125 22.5133C23.8125 25.2993 26.0921 27.5578 28.9042 27.5578Z" fill="#D1D6D4"/>
</g>
<path d="M38 44.2083H56.0488" stroke="#D1D6D4" stroke-width="2.5784" stroke-linecap="round"/>
<path d="M38 50.6544H56.0488" stroke="#D1D6D4" stroke-width="2.5784" stroke-linecap="round"/>
<circle cx="14.5" cy="10.5" r="7.7892" fill="#52CA94" stroke="white" stroke-width="2.5784"/>
<defs>
<clipPath id="clip0_2100_39059">
<rect x="16" y="12" width="25" height="25" rx="12.5" fill="white"/>
</clipPath>
</defs>
</svg>
