<svg width="70" height="70" viewBox="0 0 70 70" fill="none" xmlns="http://www.w3.org/2000/svg">
<rect x="46.7285" y="16.1579" width="12.1261" height="57.5989" rx="4" transform="rotate(45 46.7285 16.1579)" fill="#13AB67"/>
<rect x="46.7285" y="16.1579" width="12.1261" height="11.5198" transform="rotate(45 46.7285 16.1579)" fill="#7CE3B5"/>
<line x1="44.585" y1="19.539" x2="26.5299" y2="37.594" stroke="white" stroke-opacity="0.5" stroke-width="1.75" stroke-linecap="round"/>
<path d="M23.3333 17.6667L26.6563 19.1562C26.8854 19.2708 27 19.3854 27 19.5C27 19.7292 26.8854 19.8438 26.6563 19.9583L23.3333 21.3333L21.8438 24.7708C21.7292 25 21.6146 25 21.5 25C21.2708 25 21.1562 25 21.0417 24.7708L19.6667 21.3333L16.2292 19.9583C16.1146 19.8438 16 19.7292 16 19.5C16 19.3854 16.1146 19.2708 16.2292 19.1562L19.6667 17.6667L21.0417 14.3438C21.1562 14.1146 21.2708 14 21.5 14C21.6146 14 21.7292 14.1146 21.8438 14.3438L23.3333 17.6667Z" fill="#7CE3B5"/>
<path d="M39.6667 7.33333L42.6875 8.6875C42.8958 8.79167 43 8.89583 43 9C43 9.20833 42.8958 9.3125 42.6875 9.41667L39.6667 10.6667L38.3125 13.7917C38.2083 14 38.1042 14 38 14C37.7917 14 37.6875 14 37.5833 13.7917L36.3333 10.6667L33.2083 9.41667C33.1042 9.3125 33 9.20833 33 9C33 8.89583 33.1042 8.79167 33.2083 8.6875L36.3333 7.33333L37.5833 4.3125C37.6875 4.10417 37.7917 4 38 4C38.1042 4 38.2083 4.10417 38.3125 4.3125L39.6667 7.33333Z" fill="#13AB67"/>
<path d="M60.6667 33.6667L63.6875 35.1562C63.8958 35.2708 64 35.3854 64 35.5C64 35.7292 63.8958 35.8438 63.6875 35.9583L60.6667 37.3333L59.3125 40.7708C59.2083 41 59.1042 41 59 41C58.7917 41 58.6875 41 58.5833 40.7708L57.3333 37.3333L54.2083 35.9583C54.1042 35.8438 54 35.7292 54 35.5C54 35.3854 54.1042 35.2708 54.2083 35.1562L57.3333 33.6667L58.5833 30.3438C58.6875 30.1146 58.7917 30 59 30C59.1042 30 59.2083 30.1146 59.3125 30.3438L60.6667 33.6667Z" fill="#4E8DEC"/>
</svg>
